# xmcd CD database file
#
# Track frame offsets:
#	150
#	13285
#	26757
#	37500
#	48850
#	61567
#	73150
#	84580
#	96257
#	105835
#	121697
#	132462
#	145115
#	156722
#
# Disc length: 2540 seconds
#
# Revision: 0
# Processed by: cddbd v1.4PL0 Copyright (c) Steve Scherf et al.
# Submitted via: CDex 1.50
#
DISCID=b209ea0e
DTITLE=Charley Pride - In Concert - Kiss An Angel Good Morning
DYEAR=1990
DGENRE=Country
TTITLE0=Poor Old Elijah
TTITLE1=Rhup It On Me (Afraid Of Losing You Again)
TTITLE2=Oklahoma Morning
TTITLE3=It's Gonna Take A Little Bit Longer
TTITLE4=Crystal Chandelier
TTITLE5=Shutters And Boards
TTITLE6=A Place Worth Livin' In
TTITLE7=My Eyes Can Only See As Far As You
TTITLE8=Kiss An Angel Good Morning
TTITLE9=Let Me Live In The Light
TTITLE10=Mississippi Delta (Town)
TTITLE11=Help Me Make It Through The Night
TTITLE12=Louisiana Man
TTITLE13=There Goes My Everything-Lovesick Blues-Me and Bobby McGhee (Medley)
EXTD=YEAR: 1990
EXTT0=
EXTT1=
EXTT2=
EXTT3=
EXTT4=
EXTT5=
EXTT6=
EXTT7=
EXTT8=
EXTT9=
EXTT10=
EXTT11=
EXTT12=
EXTT13=
PLAYORDER=
